#tb 0: 1/1000
0,          0,          0,        0,      960, 835254d0eecb17bed1f2b0f3a1638165
0,         33,         33,        0,      960, c0c95ce9890eab339a0e0f8b26cb095c
0,         66,         66,        0,      960, f0337d645ade07cb716952b0d19352e8
0,        100,        100,        0,      960, 7e3deb21cb3f0ead90c8af94464cde14
0,        133,        133,        0,      960, c6b1ca6cfce358c411c0637c581157c8
0,        166,        166,        0,      960, 10fce3f11f1ce90286ff4d74fe44fcfd
0,        200,        200,        0,      960, ee0565a1f121bc905a35550619127a50
0,        233,        233,        0,      960, 0624b601d379616eb792c94be60b6c91
0,        266,        266,        0,      960, a1bb79cdf347548f1103f580f2b6930f
0,        300,        300,        0,      960, 40e96e16c7e065aa7932e5aa57f32398
